<?xml version="1.0" encoding="utf-8"?>
<!-- Generator: Adobe Illustrator 18.1.1, SVG Export Plug-In . SVG Version: 6.00 Build 0)  -->
<svg version="1.1" id="Layer_1" xmlns="http://www.w3.org/2000/svg" xmlns:xlink="http://www.w3.org/1999/xlink" x="0px" y="0px"
	 viewBox="0 0 323 56" enable-background="new 0 0 323 56" xml:space="preserve">
<g>
	<g>
		<path fill="#8D8D8D" d="M28.2,0C12.8-0.1,0.1,12.3,0,27.8c-0.1,6.5,2.1,12.5,5.8,17.3c1.4-1.4,2.4-2.4,2.6-2.6
			c0.7-0.7,2.7-0.7,2.7-0.7S13,39.9,15,38c2-1.9-1.4-5.3-1.4-5.3l-4.7-4.7c18.2-18,31.6-12.4,31.6-12.4s5.3,13.4-12.9,31.4l-4.7-4.7
			c0,0-3.3-3.4-5.3-1.5c-2,1.9-3.9,3.8-3.9,3.8s0,2-0.8,2.7c-0.2,0.2-1.2,1.1-2.6,2.6c4.7,3.9,10.8,6.2,17.4,6.2
			c15.4,0.1,28.1-12.3,28.2-27.8C56.1,12.8,43.6,0.1,28.2,0z"/>
	</g>
</g>
<g>
	<g>
		<g>
			<path fill="#8D8D8D" d="M73.5,38.2c1,0,1.9-0.1,2.6-0.3c0.7-0.2,1.2-0.4,1.6-0.7c0.4-0.3,0.7-0.7,0.9-1.1
				c0.2-0.4,0.2-0.9,0.2-1.4c0-1.1-0.5-2-1.5-2.7c-1-0.7-2.8-1.5-5.2-2.3c-1.1-0.4-2.2-0.8-3.2-1.3c-1.1-0.5-2-1.1-2.9-1.9
				c-0.9-0.7-1.6-1.6-2.1-2.7C63.3,22.8,63,21.6,63,20s0.3-2.9,0.9-4.1c0.6-1.2,1.4-2.3,2.4-3.1c1-0.9,2.3-1.5,3.8-2
				c1.5-0.5,3.2-0.7,5-0.7c2.2,0,4.1,0.2,5.7,0.7c1.6,0.5,2.9,1,4,1.6l-2.1,5.8c-0.9-0.5-1.9-0.9-3.1-1.3c-1.1-0.4-2.5-0.5-4.1-0.5
				c-1.8,0-3,0.2-3.8,0.7c-0.8,0.5-1.2,1.2-1.2,2.3c0,0.6,0.1,1.1,0.4,1.5c0.3,0.4,0.7,0.8,1.2,1.1c0.5,0.3,1.1,0.6,1.8,0.9
				c0.7,0.3,1.4,0.5,2.3,0.8c1.7,0.6,3.2,1.3,4.5,1.9c1.3,0.6,2.3,1.3,3.2,2.2c0.8,0.8,1.5,1.8,1.9,2.9c0.4,1.1,0.6,2.5,0.6,4
				c0,3.1-1.1,5.5-3.2,7.2c-2.2,1.7-5.4,2.5-9.7,2.5c-1.5,0-2.8-0.1-3.9-0.3c-1.2-0.2-2.2-0.4-3.1-0.6c-0.9-0.3-1.7-0.5-2.3-0.8
				c-0.6-0.3-1.2-0.6-1.6-0.8l2.1-5.9c1,0.5,2.2,1,3.6,1.4C69.6,38,71.4,38.2,73.5,38.2z"/>
			<path fill="#8D8D8D" d="M112.1,18.8c-1.4,4.8-2.9,9.3-4.5,13.5c-1.6,4.2-3.3,8.3-5.1,12.3c-0.7,1.4-1.3,2.6-2,3.6
				c-0.7,1-1.4,1.8-2.2,2.5c-0.8,0.6-1.7,1.1-2.7,1.4c-1,0.3-2.2,0.5-3.5,0.5c-1.1,0-2.1-0.1-3.1-0.3c-0.9-0.2-1.7-0.4-2.3-0.7
				L88,46c0.7,0.3,1.4,0.4,1.9,0.5c0.6,0.1,1.2,0.1,1.8,0.1c1.3,0,2.2-0.3,2.9-1c0.7-0.7,1.3-1.6,1.7-2.8c-1.6-3.2-3.2-6.7-4.8-10.7
				c-1.6-3.9-3.1-8.4-4.6-13.3h7.5c0.3,1.2,0.7,2.6,1.1,4c0.4,1.4,0.9,2.9,1.4,4.4c0.5,1.5,1,2.9,1.5,4.3c0.5,1.4,1,2.7,1.4,3.8
				c0.4-1.1,0.8-2.4,1.3-3.8c0.4-1.4,0.9-2.8,1.3-4.3c0.4-1.5,0.8-2.9,1.2-4.4c0.4-1.4,0.8-2.8,1.1-4H112.1z"/>
			<path fill="#8D8D8D" d="M122.1,38.8c1.3,0,2.2-0.1,2.8-0.4c0.5-0.3,0.8-0.7,0.8-1.5c0-0.6-0.3-1.1-1-1.5
				c-0.7-0.4-1.8-0.9-3.2-1.4c-1.1-0.4-2.1-0.8-3-1.3c-0.9-0.4-1.7-1-2.3-1.6c-0.6-0.6-1.1-1.4-1.5-2.2c-0.3-0.9-0.5-1.9-0.5-3.1
				c0-2.3,0.9-4.2,2.6-5.6c1.7-1.4,4.1-2,7.2-2c1.5,0,3,0.1,4.4,0.4c1.4,0.3,2.5,0.6,3.3,0.9l-1.2,5.5c-0.8-0.3-1.7-0.5-2.7-0.8
				c-1-0.2-2-0.3-3.3-0.3c-2.2,0-3.3,0.6-3.3,1.9c0,0.3,0,0.5,0.1,0.8c0.1,0.2,0.3,0.4,0.6,0.6c0.3,0.2,0.7,0.4,1.2,0.7
				c0.5,0.2,1.1,0.5,1.9,0.8c1.6,0.6,2.8,1.1,3.8,1.7c1,0.6,1.8,1.2,2.4,1.8c0.6,0.6,1,1.4,1.2,2.2c0.2,0.8,0.4,1.7,0.4,2.7
				c0,2.5-0.9,4.3-2.8,5.6c-1.9,1.3-4.5,1.9-7.9,1.9c-2.2,0-4.1-0.2-5.5-0.6c-1.5-0.4-2.5-0.7-3.1-1l1.2-5.8
				c1.2,0.5,2.4,0.8,3.7,1.1C119.6,38.6,120.8,38.8,122.1,38.8z"/>
			<path fill="#8D8D8D" d="M159,43c-0.6,0.2-1.4,0.4-2.2,0.5c-0.8,0.2-1.7,0.3-2.6,0.5c-0.9,0.1-1.8,0.2-2.8,0.3
				c-0.9,0.1-1.8,0.1-2.7,0.1c-2.1,0-3.9-0.3-5.5-0.9c-1.6-0.6-3-1.5-4.1-2.6c-1.1-1.1-2-2.5-2.5-4.1c-0.6-1.6-0.9-3.4-0.9-5.4
				c0-2,0.3-3.9,0.8-5.5c0.5-1.6,1.2-3,2.2-4.2c0.9-1.1,2.1-2,3.5-2.6c1.4-0.6,3-0.9,4.7-0.9c1,0,1.9,0.1,2.6,0.3
				c0.8,0.2,1.6,0.5,2.4,0.8V8.1L159,7V43z M143,31.2c0,2.2,0.5,3.9,1.5,5.3c1,1.3,2.4,2,4.4,2c0.6,0,1.2,0,1.8-0.1
				c0.5,0,1-0.1,1.3-0.2V25.3c-0.4-0.3-1-0.5-1.7-0.7s-1.4-0.3-2.2-0.3C144.6,24.3,143,26.6,143,31.2z"/>
			<path fill="#8D8D8D" d="M172.6,11.6c0,1.3-0.4,2.3-1.3,3.1c-0.8,0.7-1.8,1.1-3,1.1c-1.1,0-2.1-0.4-3-1.1
				c-0.8-0.7-1.3-1.8-1.3-3.1c0-1.3,0.4-2.3,1.3-3.1c0.8-0.7,1.8-1.1,3-1.1c1.1,0,2.1,0.4,3,1.1C172.1,9.3,172.6,10.3,172.6,11.6z
				 M171.9,43.8h-7.1v-25h7.1V43.8z"/>
			<path fill="#8D8D8D" d="M199,40.7c0,4.1-1,7.1-3.1,9.1c-2.1,2-5.3,3-9.6,3c-1.5,0-3-0.1-4.6-0.4c-1.5-0.3-2.9-0.6-4.2-1.1
				l1.2-5.9c1.1,0.4,2.3,0.8,3.5,1c1.2,0.3,2.6,0.4,4.2,0.4c2,0,3.5-0.4,4.3-1.3c0.8-0.9,1.3-2,1.3-3.4v-0.9
				c-0.8,0.3-1.5,0.6-2.4,0.8c-0.8,0.2-1.7,0.3-2.6,0.3c-3.4,0-6.1-1-7.9-3.1c-1.8-2-2.8-4.9-2.8-8.6c0-1.8,0.3-3.5,0.9-5
				c0.6-1.5,1.4-2.8,2.5-3.9c1.1-1.1,2.4-1.9,4-2.5c1.6-0.6,3.4-0.9,5.4-0.9c0.9,0,1.7,0,2.6,0.1c0.9,0.1,1.8,0.2,2.7,0.3
				c0.9,0.1,1.7,0.3,2.5,0.5c0.8,0.2,1.5,0.4,2.2,0.5V40.7z M183.5,30.5c0,4,1.6,5.9,4.8,5.9c0.7,0,1.4-0.1,2-0.3
				c0.6-0.2,1.2-0.4,1.6-0.7V24.2c-0.3-0.1-0.8-0.1-1.2-0.2s-1-0.1-1.7-0.1c-1.9,0-3.3,0.6-4.2,1.9C184,27.1,183.5,28.6,183.5,30.5z
				"/>
			<path fill="#8D8D8D" d="M218.3,43.8V12.1h20.1v2.5H221v11.7h17v2.5h-17v15H218.3z"/>
			<path fill="#8D8D8D" d="M258.5,43.8v-2.7c-2,2.2-4.6,3.3-7.8,3.3c-3.9,0-8-2.7-8-7.7c0-5,4-7.6,8-7.6c3.2,0,5.8,1,7.8,3.3v-4.7
				c0-3.4-2.8-5.3-6.1-5.3c-2.9,0-5.1,1-7.2,3.4l-1.4-1.7c2.4-2.6,5-3.9,8.8-3.9c4.7,0,8.4,2.2,8.4,7.4v16.2H258.5z M258.5,39.3v-5
				c-1.6-2.1-4.2-3.2-6.9-3.2c-3.8,0-6.3,2.4-6.3,5.7c0,3.2,2.5,5.7,6.3,5.7C254.3,42.5,256.9,41.4,258.5,39.3z"/>
			<path fill="#8D8D8D" d="M268.6,43.8V12.1h2.5v31.7H268.6z"/>
			<path fill="#8D8D8D" d="M277.5,32.3c0-6.7,4.4-12,11.1-12c4,0,6.3,1.6,8.1,3.9l-1.7,1.5c-1.7-2.3-3.8-3.2-6.3-3.2
				c-5.4,0-8.6,4.3-8.6,9.8c0,5.5,3.3,9.8,8.6,9.8c2.5,0,4.6-1,6.3-3.2l1.7,1.5c-1.9,2.4-4.1,3.9-8.1,3.9
				C281.9,44.4,277.5,39,277.5,32.3z"/>
			<path fill="#8D8D8D" d="M301,32.3c0-6.7,4.3-12,11-12c6.8,0,11.1,5.3,11.1,12c0,6.7-4.3,12.1-11.1,12.1
				C305.2,44.4,301,39,301,32.3z M320.3,32.3c0-5.1-3-9.8-8.4-9.8c-5.3,0-8.4,4.7-8.4,9.8c0,5.1,3,9.8,8.4,9.8
				C317.3,42.2,320.3,37.5,320.3,32.3z"/>
		</g>
	</g>
</g>
</svg>
